<?xml version="1.0" encoding="utf-8"?>
<COLLADA version="1.4.0" xmlns="http://www.collada.org/2008/03/COLLADASchema">
  <asset>
    <contributor>
      <author_website>/foobar.fbx</author_website>
      <authoring_tool>Blender (stable FBX IO)</authoring_tool>
    </contributor>
    <created>1970-01-01T00:00:00Z</created>
    <unit meter="1.000000" name="centimeter" />
  </asset>
  <library_lights />
  <library_materials>
    <material id="gate_black" name="gate_black">
      <instance_effect url="#effect-gate_black" />
    </material>
    <material id="gate_red" name="gate_red">
      <instance_effect url="#effect-gate_red" />
    </material>
  </library_materials>
  <library_effects>
    <effect id="effect-gate_black">
      <profile_COMMON>
        <technique sid="COMMON">
          <phong>
            <emission>
              <color>0 0 0 1</color>
            </emission>
            <ambient>
              <color>0.05087608844041824 0.05087608844041824 0.05087608844041824 1</color>
            </ambient>
            <diffuse>
              <color>0.005 0.005 0.005 1</color>
            </diffuse>
            <specular>
              <color>0.005 0.005 0.005 1</color>
            </specular>
            <shininess>
              <float>100</float>
            </shininess>
            <transparent>
              <color>0 0 0 1</color>
            </transparent>
            <transparency>
              <float>0</float>
            </transparency>
          </phong>
        </technique>
      </profile_COMMON>
    </effect>
    <effect id="effect-gate_red">
      <profile_COMMON>
        <technique sid="COMMON">
          <phong>
            <emission>
              <color>0 0 0 1</color>
            </emission>
            <ambient>
              <color>0.8 0 0 1</color>
            </ambient>
            <diffuse>
              <color>0.8 0 0 1</color>
            </diffuse>
            <specular>
              <color>0.8 0 0 1</color>
            </specular>
            <shininess>
              <float>100</float>
            </shininess>
            <transparent>
              <color>0 0 0 1</color>
            </transparent>
            <transparency>
              <float>0</float>
            </transparency>
          </phong>
        </technique>
      </profile_COMMON>
    </effect>
  </library_effects>
  <library_cameras />
  <library_geometries>
    <geometry id="Mesh.007" name="Mesh.007">
      <mesh>
        <source id="Mesh.007-position" name="position">
          <float_array id="Mesh.007-position-array" count="630">-2.809999942779541 2.809999942779541 30.479995727539062 2.809999942779541 -2.809999942779541 30.479995727539062 2.809999942779541 2.809999942779541 30.479995727539062 -2.809999942779541 -2.809999942779541 30.479995727539062 -2.809999942779541 -3.809999942779541 29.479995727539062 2.809999942779541 -3.809999942779541 -29.480003356933594 2.809999942779541 -3.809999942779541 29.479995727539062 -2.809999942779541 -3.809999942779541 -29.480003356933594 3.809999942779541 -2.809999942779541 29.479995727539062 3.809999942779541 2.809999942779541 -29.480003356933594 3.809999942779541 2.809999942779541 29.479995727539062 3.809999942779541 -2.809999942779541 -29.480003356933594 2.809999942779541 3.809999942779541 29.479995727539062 -2.809999942779541 3.809999942779541 -29.480003356933594 -2.809999942779541 3.809999942779541 29.479995727539062 2.809999942779541 3.809999942779541 -29.480003356933594 -3.809999942779541 2.809999942779541 29.479995727539062 -3.809999942779541 -2.809999942779541 -29.480003356933594 -3.809999942779541 -2.809999942779541 29.479995727539062 -3.809999942779541 2.809999942779541 -29.480003356933594 2.809999942779541 -2.809999942779541 -30.480003356933594 -2.809999942779541 -2.809999942779541 -30.480003356933594 -2.809999942779541 2.809999942779541 -30.480003356933594 2.809999942779541 2.809999942779541 -30.480003356933594 -3.6224989891052246 -3.6224989891052246 30.292503356933594 -3.309999942779541 -3.309999942779541 30.479995727539062 -3.684999942779541 -3.309999942779541 30.354995727539062 -3.309999942779541 -3.684999942779541 30.354995727539062 3.684999942779541 -3.309999942779541 30.354995727539062 3.309999942779541 -3.309999942779541 30.479995727539062 3.6224989891052246 -3.6224989891052246 30.292503356933594 3.309999942779541 -3.684999942779541 30.354995727539062 3.6224989891052246 3.6224989891052246 30.292503356933594 3.309999942779541 3.684999942779541 30.354995727539062 3.309999942779541 3.309999942779541 30.479995727539062 3.684999942779541 3.309999942779541 30.354995727539062 -3.6224989891052246 3.6224989891052246 30.292503356933594 -3.309999942779541 3.309999942779541 30.479995727539062 -3.309999942779541 3.684999942779541 30.354995727539062 -3.684999942779541 3.309999942779541 30.354995727539062 -3.309999942779541 -2.809999942779541 30.479995727539062 -2.809999942779541 -3.309999942779541 30.479995727539062 3.309999942779541 -2.809999942779541 30.479995727539062 2.809999942779541 -3.309999942779541 30.479995727539062 2.809999942779541 3.309999942779541 30.479995727539062 3.309999942779541 2.809999942779541 30.479995727539062 -2.809999942779541 3.309999942779541 30.479995727539062 -3.309999942779541 2.809999942779541 30.479995727539062 -3.684999942779541 -3.684999942779541 -29.980003356933594 -3.622499942779541 -3.622499942779541 -30.292499542236328 -3.309999942779541 -3.809999942779541 -29.980003356933594 -3.309999942779541 -3.684999942779541 -30.355003356933594 3.684999942779541 -3.684999942779541 -29.980003356933594 3.309999942779541 -3.809999942779541 -29.980003356933594 3.622499942779541 -3.622499942779541 -30.292499542236328 3.309999942779541 -3.684999942779541 -30.355003356933594 3.6224989891052246 -3.6224989891052246 30.292503356933594 3.309999942779541 -3.684999942779541 30.354995727539062 3.309999942779541 -3.809999942779541 29.979995727539062 3.684999942779541 -3.684999942779541 29.979995727539062 -3.6224989891052246 -3.6224989891052246 30.292503356933594 -3.309999942779541 -3.809999942779541 29.979995727539062 -3.309999942779541 -3.684999942779541 30.354995727539062 -3.684999942779541 -3.684999942779541 29.979995727539062 -3.309999942779541 -3.809999942779541 -29.480003356933594 -2.809999942779541 -3.809999942779541 -29.980003356933594 3.309999942779541 -3.809999942779541 -29.480003356933594 2.809999942779541 -3.809999942779541 -29.980003356933594 2.809999942779541 -3.809999942779541 29.979995727539062 3.309999942779541 -3.809999942779541 29.479995727539062 -2.809999942779541 -3.809999942779541 29.979995727539062 -3.309999942779541 -3.809999942779541 29.479995727539062 3.684999942779541 -3.684999942779541 -29.980003356933594 3.622499942779541 -3.622499942779541 -30.292499542236328 3.809999942779541 -3.309999942779541 -29.980003356933594 3.684999942779541 -3.309999942779541 -30.355003356933594 3.684999942779541 3.684999942779541 -29.980003356933594 3.809999942779541 3.309999942779541 -29.980003356933594 3.622499942779541 3.622499942779541 -30.292499542236328 3.684999942779541 3.309999942779541 -30.355003356933594 3.684999942779541 3.309999942779541 30.354995727539062 3.809999942779541 3.309999942779541 29.979995727539062 3.684999942779541 3.684999942779541 29.979995727539062 3.6224989891052246 -3.6224989891052246 30.292503356933594 3.809999942779541 -3.309999942779541 29.979995727539062 3.684999942779541 -3.309999942779541 30.354995727539062 3.684999942779541 -3.684999942779541 29.979995727539062 3.809999942779541 -3.309999942779541 -29.480003356933594 3.809999942779541 -2.809999942779541 -29.980003356933594 3.809999942779541 3.309999942779541 -29.480003356933594 3.809999942779541 2.809999942779541 -29.980003356933594 3.809999942779541 2.809999942779541 29.979995727539062 3.809999942779541 3.309999942779541 29.479995727539062 3.809999942779541 -2.809999942779541 29.979995727539062 3.809999942779541 -3.309999942779541 29.479995727539062 3.684999942779541 3.684999942779541 -29.980003356933594 3.622499942779541 3.622499942779541 -30.292499542236328 3.309999942779541 3.809999942779541 -29.980003356933594 3.309999942779541 3.684999942779541 -30.355003356933594 -3.684999942779541 3.684999942779541 -29.980003356933594 -3.309999942779541 3.809999942779541 -29.980003356933594 -3.622499942779541 3.622499942779541 -30.292499542236328 -3.309999942779541 3.684999942779541 -30.355003356933594 -3.6224989891052246 3.6224989891052246 30.292503356933594 -3.309999942779541 3.684999942779541 30.354995727539062 -3.309999942779541 3.809999942779541 29.979995727539062 -3.684999942779541 3.684999942779541 29.979995727539062 3.6224989891052246 3.6224989891052246 30.292503356933594 3.309999942779541 3.809999942779541 29.979995727539062 3.309999942779541 3.684999942779541 30.354995727539062 3.684999942779541 3.684999942779541 29.979995727539062 3.309999942779541 3.809999942779541 -29.480003356933594 2.809999942779541 3.809999942779541 -29.980003356933594 -3.309999942779541 3.809999942779541 -29.480003356933594 -2.809999942779541 3.809999942779541 -29.980003356933594 -2.809999942779541 3.809999942779541 29.979995727539062 -3.309999942779541 3.809999942779541 29.479995727539062 2.809999942779541 3.809999942779541 29.979995727539062 3.309999942779541 3.809999942779541 29.479995727539062 -3.684999942779541 3.684999942779541 -29.980003356933594 -3.622499942779541 3.622499942779541 -30.292499542236328 -3.809999942779541 3.309999942779541 -29.980003356933594 -3.684999942779541 3.309999942779541 -30.355003356933594 -3.684999942779541 -3.684999942779541 -29.980003356933594 -3.809999942779541 -3.309999942779541 -29.980003356933594 -3.622499942779541 -3.622499942779541 -30.292499542236328 -3.684999942779541 -3.309999942779541 -30.355003356933594 -3.6224989891052246 -3.6224989891052246 30.292503356933594 -3.684999942779541 -3.309999942779541 30.354995727539062 -3.809999942779541 -3.309999942779541 29.979995727539062 -3.684999942779541 -3.684999942779541 29.979995727539062 -3.809999942779541 3.309999942779541 29.979995727539062 -3.684999942779541 3.309999942779541 30.354995727539062 -3.684999942779541 3.684999942779541 29.979995727539062 -3.809999942779541 3.309999942779541 -29.480003356933594 -3.809999942779541 2.809999942779541 -29.980003356933594 -3.809999942779541 -3.309999942779541 -29.480003356933594 -3.809999942779541 -2.809999942779541 -29.980003356933594 -3.809999942779541 -2.809999942779541 29.979995727539062 -3.809999942779541 -3.309999942779541 29.479995727539062 -3.809999942779541 2.809999942779541 29.979995727539062 -3.809999942779541 3.309999942779541 29.479995727539062 -3.309999942779541 -3.309999942779541 -30.480003356933594 -3.309999942779541 -3.684999942779541 -30.355003356933594 -3.684999942779541 -3.309999942779541 -30.355003356933594 -3.309999942779541 3.309999942779541 -30.480003356933594 -3.684999942779541 3.309999942779541 -30.355003356933594 -3.309999942779541 3.684999942779541 -30.355003356933594 3.684999942779541 3.309999942779541 -30.355003356933594 3.309999942779541 3.309999942779541 -30.480003356933594 3.309999942779541 3.684999942779541 -30.355003356933594 3.309999942779541 -3.684999942779541 -30.355003356933594 3.309999942779541 -3.309999942779541 -30.480003356933594 3.684999942779541 -3.309999942779541 -30.355003356933594 -2.809999942779541 -3.309999942779541 -30.480003356933594 -3.309999942779541 -2.809999942779541 -30.480003356933594 -3.309999942779541 2.809999942779541 -30.480003356933594 -2.809999942779541 3.309999942779541 -30.480003356933594 3.309999942779541 2.809999942779541 -30.480003356933594 2.809999942779541 3.309999942779541 -30.480003356933594 2.809999942779541 -3.309999942779541 -30.480003356933594 3.309999942779541 -2.809999942779541 -30.480003356933594 2.809999942779541 -3.684999942779541 30.354995727539062 -2.809999942779541 -3.684999942779541 30.354995727539062 3.684999942779541 2.809999942779541 30.354995727539062 3.684999942779541 -2.809999942779541 30.354995727539062 -2.809999942779541 3.684999942779541 30.354995727539062 2.809999942779541 3.684999942779541 30.354995727539062 -3.684999942779541 -2.809999942779541 30.354995727539062 -3.684999942779541 2.809999942779541 30.354995727539062 2.809999942779541 -3.684999942779541 -30.355003356933594 -2.809999942779541 -3.684999942779541 -30.355003356933594 3.684999942779541 -3.684999942779541 29.479995727539062 3.684999942779541 -3.684999942779541 -29.480003356933594 -2.809999942779541 -3.684999942779541 30.354995727539062 2.809999942779541 -3.684999942779541 30.354995727539062 -3.684999942779541 -3.684999942779541 -29.480003356933594 -3.684999942779541 -3.684999942779541 29.479995727539062 3.684999942779541 2.809999942779541 -30.355003356933594 3.684999942779541 -2.809999942779541 -30.355003356933594 3.684999942779541 3.684999942779541 29.479995727539062 3.684999942779541 3.684999942779541 -29.480003356933594 3.684999942779541 -2.809999942779541 30.354995727539062 3.684999942779541 2.809999942779541 30.354995727539062 3.684999942779541 -3.684999942779541 -29.480003356933594 3.684999942779541 -3.684999942779541 29.479995727539062 -2.809999942779541 3.684999942779541 -30.355003356933594 2.809999942779541 3.684999942779541 -30.355003356933594 -3.684999942779541 3.684999942779541 29.479995727539062 -3.684999942779541 3.684999942779541 -29.480003356933594 2.809999942779541 3.684999942779541 30.354995727539062 -2.809999942779541 3.684999942779541 30.354995727539062 3.684999942779541 3.684999942779541 -29.480003356933594 3.684999942779541 3.684999942779541 29.479995727539062 -3.684999942779541 -2.809999942779541 -30.355003356933594 -3.684999942779541 2.809999942779541 -30.355003356933594 -3.684999942779541 -3.684999942779541 29.479995727539062 -3.684999942779541 -3.684999942779541 -29.480003356933594 -3.684999942779541 2.809999942779541 30.354995727539062 -3.684999942779541 -2.809999942779541 30.354995727539062 -3.684999942779541 3.684999942779541 -29.480003356933594 -3.684999942779541 3.684999942779541 29.479995727539062 -3.684999942779541 2.809999942779541 -30.355003356933594 -3.684999942779541 -2.809999942779541 -30.355003356933594 2.809999942779541 3.684999942779541 -30.355003356933594 -2.809999942779541 3.684999942779541 -30.355003356933594 3.684999942779541 -2.809999942779541 -30.355003356933594 3.684999942779541 2.809999942779541 -30.355003356933594 -2.809999942779541 -3.684999942779541 -30.355003356933594 2.809999942779541 -3.684999942779541 -30.355003356933594 </float_array>
          <technique_common>
            <accessor source="#Mesh.007-position-array" count="210" stride="3">
              <param name="X" type="float" />
              <param name="Y" type="float" />
              <param name="Z" type="float" />
            </accessor>
          </technique_common>
        </source>
        <source id="Mesh.007-normal" name="normal">
          <float_array id="Mesh.007-normal-array" count="582">0 0 1 0 0 -1 0 1 0 0 -1 0 0 0.9870873 0.16018325 0 0.9870873 -0.16018325 0 -0.9870873 0.16018325 0 -0.9870873 -0.16018325 0 0.16018339 0.9870873 0 0.16018339 -0.9870873 0 0.9870871 0.16018444 0 0.9870871 -0.16018444 0 -0.16018339 0.9870873 0 -0.16018339 -0.9870873 0 -0.9870871 0.16018444 0 -0.9870871 -0.16018444 0 0.16018447 0.9870871 0 0.16018447 -0.9870871 0 -0.16018447 0.9870871 0 -0.16018447 -0.9870871 0.14945412 0.14945431 -0.97740823 0.16018486 0 0.9870871 0.16018486 0 -0.9870871 0.57733154 -0.57736593 0.5773533 0.6990771 0.69905436 0.15038013 0.7070837 -2.1449456E-05 0.70712984 0.7071128 -2.1451488E-05 0.7071008 0.7071328 2.1449443E-05 0.70708084 0.9774084 0.14945373 -0.14945358 0.9774084 -0.14945373 -0.14945358 0.98708725 0 0.1601839 1 0 0 -0.14945412 0.14945431 -0.97740823 -0.15031648 -0.69906044 0.69908476 -0.16018486 0 0.9870871 -0.16018486 0 -0.9870871 -0.6990609 0.15034124 -0.69907904 -0.6990771 -0.69905436 0.15038013 -0.7070837 2.1449456E-05 0.70712984 -0.7071128 2.1451488E-05 0.7071008 -0.7071328 -2.1449443E-05 0.70708084 -0.9774084 0.14945373 -0.14945358 -0.9774084 -0.14945373 -0.14945358 -0.98708725 0 0.1601839 -1 0 0 0.14944996 0.14945091 0.97740936 0.6990548 -0.6990767 0.15038031 0.6990829 0.1503183 0.69906175 0.9870873 0 -0.16018282 0.9870873 0.16018347 0 0.9870873 -0.16018347 0 -0.6990548 0.6990767 0.15038031 -0.6990829 -0.1503183 0.69906175 -0.9870873 0 -0.16018282 -0.9870873 0.16018347 0 -0.9870873 -0.16018347 0 0.15031388 0.69906056 0.6990853 0.15032855 0.6990807 -0.6990619 0.15034166 -0.69907963 -0.6990601 0.16018608 0 -0.98708683 0.5773312 0.57734525 0.57737434 0.69906056 -0.69908255 -0.15032636 0.69906104 -0.15031753 0.6990839 0.70708144 0.7071321 2.1449445E-05 0.70708144 -0.7071321 -2.1449445E-05 0.707131 -2.1449452E-05 -0.7070825 0.707132 0.70708144 -2.1449445E-05 0.707132 -0.70708144 2.1449445E-05 -0.15032855 -0.6990807 -0.6990619 -0.15034166 0.69907963 -0.6990601 -0.16018608 0 -0.98708683 -0.5773312 -0.57734525 0.57737434 -0.5773722 0.5773391 -0.57733953 -0.69906056 0.69908255 -0.15032636 -0.70708144 0.7071321 -2.1449445E-05 -0.70708144 -0.7071321 2.1449445E-05 -0.707131 2.1449452E-05 -0.7070825 -0.707132 0.70708144 2.1449445E-05 -0.707132 -0.70708144 -2.1449445E-05 0.14945476 -0.14945431 -0.9774082 0.15034048 0.69906056 -0.69907945 0.15037398 0.6990783 0.6990545 0.160183 0 0.9870873 0.16018347 0.9870873 0 0.16018347 -0.9870873 0 0.16018407 0.9870872 0 0.16018407 -0.9870872 0 0.5773632 0.57733274 0.5773549 0.6990625 0.6990813 0.1503233 0.6990797 0.15034127 -0.6990601 -0.14944999 0.14945094 0.9774094 -0.14945476 -0.14945431 -0.9774082 -0.15037398 -0.6990783 0.6990545 -0.160183 0 0.9870873 -0.16018347 0.9870873 0 -0.16018347 -0.9870873 0 -0.16018407 0.9870872 0 -0.16018407 -0.9870872 0 -0.69905347 -0.15037423 0.6990793 -0.6990611 0.15031767 0.6990839 -0.6990625 -0.6990813 0.1503233 -0.6990797 -0.15034127 -0.6990601 0.15037292 -0.6990528 0.69908017 0.57733846 0.5773728 -0.57733953 0.57734513 0.5773655 0.5773401 0.57734513 -0.5773318 0.57737386 0.6990535 0.15037449 0.6990793 0.6990588 0.69908136 -0.15033974 0.6990626 0.15032813 -0.69907993 0.69907975 -0.6990606 -0.15033908 0.70708394 2.1449456E-05 -0.7071297 0.70713115 2.144945E-05 0.7070824 0.7071321 0.70708144 -2.1449445E-05 0.7071321 -0.70708144 2.1449445E-05 0.987087 0 -0.16018508 -0.15032703 0.6990624 -0.69908065 -0.57734513 -0.5773655 0.5773401 -0.57734513 0.5773318 0.57737386 -0.6990588 -0.69908136 -0.15033974 -0.6990626 -0.15032803 -0.6990801 -0.69907975 0.6990606 -0.15033908 -0.70708394 -2.1449456E-05 -0.7071297 -0.70713115 -2.144945E-05 0.7070824 -0.7071321 0.70708144 2.1449445E-05 -0.7071321 -0.70708144 -2.1449445E-05 -0.987087 0 -0.16018508 2.1449445E-05 0.70708144 0.7071321 2.1449445E-05 -0.70708144 -0.7071321 2.1449445E-05 0.70708156 0.7071319 2.1449445E-05 0.7071321 -0.70708144 2.1449445E-05 -0.70708156 -0.7071319 2.1449445E-05 -0.7071321 0.70708144 0.14945062 -0.14945082 0.9774093 0.14945324 0.97740847 -0.14945373 0.15031715 -0.69908285 0.6990621 0.5773409 -0.577374 -0.57733583 0.5773409 0.57734036 -0.5773695 0.5773743 -0.57733893 -0.5773376 0.6990784 -0.15037516 0.69905424 0.7070816 0.7071319 2.1449447E-05 0.7070816 -0.7071319 -2.1449447E-05 0.707084 2.144946E-05 -0.70712966 0.9774087 0.14945285 0.14945267 0.9774087 -0.14945285 0.14945267 -2.1449445E-05 0.70708144 -0.7071321 -2.1449445E-05 -0.70708144 0.7071321 -2.1449445E-05 0.70708156 -0.7071319 -2.1449445E-05 0.7071321 0.70708144 -2.1449445E-05 -0.70708156 0.7071319 -2.1449445E-05 -0.7071321 -0.70708144 -0.14945062 -0.14945081 0.9774093 -0.14945324 -0.97740847 -0.14945373 -0.15031715 0.69908285 0.6990621 -0.15034278 -0.6990607 -0.6990789 -0.5773409 0.577374 -0.57733583 -0.5773409 -0.57734036 -0.5773695 -0.6990784 0.15037516 0.69905424 -0.7070816 0.7071319 -2.1449447E-05 -0.7070816 -0.7071319 2.1449447E-05 -0.707084 -2.144946E-05 -0.70712966 -0.9774087 0.14945285 0.14945267 -0.9774087 -0.14945285 0.14945267 0.14945325 -0.97740847 -0.14945373 0.15032932 -0.69906247 -0.69908 0.57737243 0.5773422 -0.57733625 0.6990608 -0.15034145 -0.699079 0.6990808 0.6990624 -0.15032575 0.6990808 -0.15032838 -0.6990618 0.6990818 -0.699062 0.15032327 0.7071327 -2.1449443E-05 -0.7070809 -0.14945325 0.97740847 -0.14945373 -0.5773295 0.57736635 0.5773549 -0.5773653 -0.57733226 0.57735336 -0.57737243 -0.5773422 -0.57733625 -0.6990808 -0.6990624 -0.15032575 -0.6990808 0.15032838 -0.6990618 -0.6990818 0.699062 0.15032327 -0.7071327 2.1449443E-05 -0.7070809 0.14945267 0.9774087 0.14945282 0.14945267 -0.9774087 0.14945282 0.57733864 -0.57734215 -0.57737005 0.57736486 -0.57734525 0.5773407 0.9870872 0 0.16018412 0.9870872 0.16018397 0 0.9870872 -0.16018397 0 -0.14945267 0.9774087 0.14945282 -0.14945267 -0.9774087 0.14945282 -0.15037082 0.6990529 0.69908065 -0.57733864 0.57734215 -0.57737005 -0.57734054 -0.5773727 -0.5773376 -0.57736486 0.57734525 0.5773407 -0.9870872 0 0.16018412 -0.9870872 0.16018397 0 -0.9870872 -0.16018397 0 </float_array>
          <technique_common>
            <accessor source="#Mesh.007-normal-array" count="194" stride="3">
              <param name="X" type="float" />
              <param name="Y" type="float" />
              <param name="Z" type="float" />
            </accessor>
          </technique_common>
        </source>
        <source id="Mesh.007-texcoord" name="texcoord">
          <float_array id="Mesh.007-texcoord-array" count="420">0 0 0.065617 0 0.131234 0 0.868766 0 0.934383 0 1 0 0 0.065617025 0.065617 0.065617025 0.131234 0.065617025 0.868766 0.065617025 0.934383 0.065617025 1 0.065617025 0 0.13123399 0.065617 0.13123399 0.131234 0.13123399 0.868766 0.13123399 0.934383 0.13123399 1 0.13123399 0 0.5 0 0.5 0 0.5 0 0.5 0 0.5 0 0.5 0 0.5 0 0.5 0 0.5 0 0.5 0 0.5 0 0.5 0 0.5 0 0.5 0 0.5 0 0.5 0 0.5 0 0.5 0 0.5 0 0.5 0 0.5 0 0.5 0 0.5 0 0.5 0 0.5 0 0.5 0 0.5 0 0.5 0 0.5 0 0.5 0 0.5 0 0.5 0 0.5 0 0.5 0 0.5 0 0.5 0.065617 0.5 0.065617 0.5 0.065617 0.5 0.065617 0.5 0.131234 0.5 0.131234 0.5 0.131234 0.5 0.131234 0.5 0.868766 0.5 0.868766 0.5 0.868766 0.5 0.868766 0.5 0.934383 0.5 0.934383 0.5 0.934383 0.5 0.934383 0.5 1 0.5 1 0.5 1 0.5 1 0.5 0 0.504101 0 0.504101 0 0.504101 0 0.504101 0.065617 0.504101 0.065617 0.504101 0.065617 0.504101 0.065617 0.504101 0.131234 0.504101 0.131234 0.504101 0.131234 0.504101 0.131234 0.504101 0.868766 0.504101 0.868766 0.504101 0.868766 0.504101 0.868766 0.504101 0.934383 0.504101 0.934383 0.504101 0.934383 0.504101 0.934383 0.504101 1 0.504101 1 0.504101 1 0.504101 1 0.504101 0 0.508202 0 0.508202 0 0.508202 0 0.508202 0.065617 0.508202 0.065617 0.508202 0.065617 0.508202 0.065617 0.508202 0.131234 0.508202 0.131234 0.508202 0.131234 0.508202 0.131234 0.508202 0.868766 0.508202 0.868766 0.508202 0.868766 0.508202 0.868766 0.508202 0.934383 0.508202 0.934383 0.508202 0.934383 0.508202 0.934383 0.508202 1 0.508202 1 0.508202 1 0.508202 1 0.508202 0 0.868766 0.065617 0.868766 0.131234 0.868766 0.868766 0.868766 0.934383 0.868766 1 0.868766 0 0.934383 0.065617 0.934383 0.131234 0.934383 0.868766 0.934383 0.934383 0.934383 1 0.934383 0 0.991798 0 0.991798 0 0.991798 0 0.991798 0.065617 0.991798 0.065617 0.991798 0.065617 0.991798 0.065617 0.991798 0.131234 0.991798 0.131234 0.991798 0.131234 0.991798 0.131234 0.991798 0.868766 0.991798 0.868766 0.991798 0.868766 0.991798 0.868766 0.991798 0.934383 0.991798 0.934383 0.991798 0.934383 0.991798 0.934383 0.991798 1 0.991798 1 0.991798 1 0.991798 1 0.991798 0 0.995899 0 0.995899 0 0.995899 0 0.995899 0.065617 0.995899 0.065617 0.995899 0.065617 0.995899 0.065617 0.995899 0.131234 0.995899 0.131234 0.995899 0.131234 0.995899 0.131234 0.995899 0.868766 0.995899 0.868766 0.995899 0.868766 0.995899 0.868766 0.995899 0.934383 0.995899 0.934383 0.995899 0.934383 0.995899 0.934383 0.995899 1 0.995899 1 0.995899 1 0.995899 1 0.995899 0 1 0 1 0 1 0 1 0.065617 1 0.065617 1 0.065617 1 0.065617 1 0.065617 1 0.131234 1 0.131234 1 0.131234 1 0.131234 1 0.131234 1 0.868766 1 0.868766 1 0.868766 1 0.868766 1 0.868766 1 0.934383 1 0.934383 1 0.934383 1 0.934383 1 0.934383 1 1 1 1 1 1 1 1 1 </float_array>
          <technique_common>
            <accessor source="#Mesh.007-texcoord-array" count="210" stride="2">
              <param name="S" type="float" />
              <param name="T" type="float" />
            </accessor>
          </technique_common>
        </source>
        <vertices id="Mesh.007-vertices">
          <input semantic="POSITION" source="#Mesh.007-position" />
        </vertices>
        <triangles material="mat0" count="300">
          <input semantic="VERTEX" source="#Mesh.007-vertices" offset="0" />
          <input semantic="NORMAL" source="#Mesh.007-normal" offset="1" />
          <input semantic="TEXCOORD" source="#Mesh.007-texcoord" offset="2" />
          <p>0 0 124 1 0 15 2 0 125 1 0 15 0 0 124 3 0 14 4 3 142 5 3 110 6 3 146 5 3 110 4 3 142 7 3 106 8 31 143 9 31 111 10 31 147 9 31 111 8 31 143 11 31 107 12 2 144 13 2 112 14 2 148 13 2 112 12 2 144 15 2 108 16 44 145 17 44 113 18 44 149 17 44 113 16 44 145 19 44 109 20 1 18 21 1 19 22 1 20 20 1 18 22 1 20 23 1 21 24 172 0 25 150 7 26 98 6 25 150 7 24 172 0 27 33 1 28 62 11 29 132 10 30 23 5 29 132 10 31 102 4 30 23 5 32 87 206 33 56 201 34 45 132 34 45 132 35 106 133 32 87 206 36 171 182 37 90 129 38 187 186 37 90 129 36 171 182 39 99 128 40 93 13 25 150 7 3 0 14 3 0 14 25 150 7 41 12 8 42 21 16 1 0 15 29 132 10 1 0 15 43 18 9 29 132 10 34 45 132 44 8 131 2 0 125 34 45 132 2 0 125 45 82 126 37 90 129 0 0 124 46 16 130 0 0 124 37 90 129 47 34 123 48 118 74 49 173 22 50 151 78 50 151 78 49 173 22 51 68 54 52 61 94 53 162 90 54 180 70 53 162 90 55 58 66 54 180 70 56 181 207 57 134 202 58 179 174 58 179 174 59 46 178 56 181 207 60 71 183 61 186 162 62 92 187 61 186 162 60 71 183 63 100 158 64 97 102 50 151 78 7 3 106 7 3 106 50 151 78 65 7 82 66 84 114 5 3 110 53 162 90 5 3 110 67 15 86 53 162 90 58 179 174 68 6 170 6 3 146 58 179 174 6 3 146 69 86 150 61 186 162 4 3 142 70 14 166 4 3 142 61 186 162 71 95 138 72 109 75 73 135 23 74 29 79 74 29 79 73 135 23 75 167 55 76 166 95 77 28 91 78 136 71 77 28 91 79 89 67 78 136 71 32 104 206 80 47 203 81 142 175 81 142 175 82 24 179 32 104 206 83 105 184 84 143 163 85 138 188 84 143 163 83 105 184 86 168 159 87 184 103 74 29 79 11 31 107 11 31 107 74 29 79 88 48 83 89 49 115 9 31 111 77 28 91 9 31 111 90 114 87 77 28 91 81 142 175 91 30 171 10 31 147 81 142 175 10 31 147 92 183 151 84 143 163 8 31 143 93 182 167 8 31 143 84 143 163 94 50 139 95 107 76 96 164 24 97 133 80 97 133 80 96 164 24 98 57 56 99 73 96 100 170 92 101 188 72 100 170 92 102 69 68 101 188 72 103 190 208 104 152 204 105 185 176 105 185 176 106 51 180 103 190 208 107 60 185 108 178 164 109 81 189 108 178 164 107 60 185 110 88 160 111 85 104 97 133 80 15 2 108 15 2 108 97 133 80 112 5 84 113 94 116 13 2 112 100 170 92 13 2 112 114 11 88 100 170 92 105 185 176 115 4 172 14 2 148 105 185 176 14 2 148 116 96 152 108 178 164 12 2 144 117 10 168 12 2 144 108 178 164 118 83 140 119 120 77 120 154 25 121 41 81 121 41 81 120 154 25 122 175 57 123 174 97 124 42 93 125 155 73 124 42 93 126 101 69 125 155 73 127 116 209 128 52 205 129 161 177 129 161 177 130 37 181 127 116 209 36 117 182 131 160 165 132 156 190 131 160 165 36 117 182 133 176 161 134 192 105 121 41 81 19 44 109 19 44 109 121 41 81 135 53 85 136 55 117 17 44 113 124 42 93 17 44 113 137 125 89 124 42 93 129 161 177 138 43 173 18 44 149 129 161 177 18 44 149 139 193 153 131 160 165 16 44 145 140 191 169 16 44 145 131 160 165 141 54 141 49 189 22 142 91 26 143 153 27 142 91 26 49 189 22 144 119 28 120 72 25 145 32 29 146 36 30 145 32 29 120 72 25 147 115 31 148 108 32 149 20 33 96 103 24 149 20 33 150 80 34 96 103 24 73 137 23 151 163 35 152 79 36 152 79 36 153 165 37 73 137 23 142 91 26 21 1 19 154 19 38 21 1 19 142 91 26 155 35 39 156 70 40 145 32 29 22 1 20 22 1 20 145 32 29 157 9 41 158 22 42 23 1 21 149 20 33 23 1 21 159 17 43 149 20 33 152 79 36 160 13 44 20 1 18 152 79 36 20 1 18 161 59 45 29 132 10 43 18 9 31 102 4 43 18 9 162 145 3 31 102 4 25 150 7 27 33 1 41 12 8 41 12 8 27 33 1 163 148 2 43 18 9 41 12 8 163 148 2 43 18 9 163 148 2 162 145 3 1 0 15 3 0 14 41 12 8 1 0 15 41 12 8 43 18 9 35 106 133 34 45 132 45 82 126 35 106 133 45 82 126 164 26 127 165 25 17 42 21 16 28 62 11 42 21 16 29 132 10 28 62 11 165 25 17 164 26 127 45 82 126 45 82 126 42 21 16 165 25 17 42 21 16 45 82 126 2 0 125 2 0 125 1 0 15 42 21 16 38 187 186 46 16 130 166 126 191 46 16 130 38 187 186 37 90 129 33 56 201 167 128 196 44 8 131 33 56 201 44 8 131 34 45 132 167 128 196 166 126 191 46 16 130 167 128 196 46 16 130 44 8 131 44 8 131 46 16 130 0 0 124 44 8 131 0 0 124 2 0 125 168 39 12 26 98 6 40 93 13 40 93 13 26 98 6 25 150 7 39 99 128 47 34 123 37 90 129 47 34 123 39 99 128 169 38 122 169 38 122 40 93 13 47 34 123 40 93 13 169 38 122 168 39 12 47 34 123 3 0 14 0 0 124 3 0 14 47 34 123 40 93 13 53 162 90 67 15 86 55 58 66 67 15 86 170 149 62 55 58 66 50 151 78 51 68 54 65 7 82 65 7 82 51 68 54 171 149 58 171 149 58 67 15 86 65 7 82 67 15 86 171 149 58 170 149 62 5 3 110 7 3 106 65 7 82 5 3 110 65 7 82 67 15 86 59 46 178 58 179 174 69 86 150 59 46 178 69 86 150 172 140 154 173 64 118 66 84 114 52 61 94 66 84 114 53 162 90 52 61 94 173 64 118 172 140 154 69 86 150 69 86 150 66 84 114 173 64 118 66 84 114 69 86 150 6 3 146 6 3 146 5 3 110 66 84 114 62 92 187 70 14 166 174 131 192 70 14 166 62 92 187 61 186 162 57 134 202 175 131 197 68 6 170 57 134 202 68 6 170 58 179 174 175 131 197 174 131 192 70 14 166 175 131 197 70 14 166 68 6 170 68 6 170 70 14 166 4 3 142 68 6 170 4 3 142 6 3 146 176 158 98 48 118 74 64 97 102 64 97 102 48 118 74 50 151 78 63 100 158 71 95 138 61 186 162 71 95 138 63 100 158 177 75 134 177 75 134 64 97 102 71 95 138 64 97 102 177 75 134 176 158 98 71 95 138 7 3 106 4 3 142 7 3 106 71 95 138 64 97 102 77 28 91 90 114 87 79 89 67 90 114 87 178 65 63 79 89 67 74 29 79 75 167 55 88 48 83 88 48 83 75 167 55 179 169 59 179 169 59 90 114 87 88 48 83 90 114 87 179 169 59 178 65 63 9 31 111 11 31 107 88 48 83 9 31 111 88 48 83 90 114 87 82 24 179 81 142 175 92 183 151 82 24 179 92 183 151 180 66 155 181 112 119 89 49 115 76 166 95 89 49 115 77 28 91 76 166 95 181 112 119 180 66 155 92 183 151 92 183 151 89 49 115 181 112 119 89 49 115 92 183 151 10 31 147 10 31 147 9 31 111 89 49 115 85 138 188 93 182 167 182 27 193 93 182 167 85 138 188 84 143 163 80 47 203 183 111 198 91 30 171 80 47 203 91 30 171 81 142 175 183 111 198 182 27 193 93 182 167 183 111 198 93 182 167 91 30 171 91 30 171 93 182 167 8 31 143 91 30 171 8 31 143 10 31 147 184 67 99 72 109 75 87 184 103 87 184 103 72 109 75 74 29 79 86 168 159 94 50 139 84 143 163 94 50 139 86 168 159 185 113 135 185 113 135 87 184 103 94 50 139 87 184 103 185 113 135 184 67 99 94 50 139 11 31 107 8 31 143 11 31 107 94 50 139 87 184 103 100 170 92 114 11 88 102 69 68 114 11 88 186 129 64 102 69 68 97 133 80 98 57 56 112 5 84 112 5 84 98 57 56 187 129 60 187 129 60 114 11 88 112 5 84 114 11 88 187 129 60 186 129 64 13 2 112 15 2 108 112 5 84 13 2 112 112 5 84 114 11 88 106 51 180 105 185 176 116 96 152 106 51 180 116 96 152 188 157 156 189 74 120 113 94 116 99 73 96 113 94 116 100 170 92 99 73 96 189 74 120 188 157 156 116 96 152 116 96 152 113 94 116 189 74 120 113 94 116 116 96 152 14 2 148 14 2 148 13 2 112 113 94 116 109 81 189 117 10 168 190 147 194 117 10 168 109 81 189 108 178 164 104 152 204 191 147 199 115 4 172 104 152 204 115 4 172 105 185 176 191 147 199 190 147 194 117 10 168 191 147 199 117 10 168 115 4 172 115 4 172 117 10 168 12 2 144 115 4 172 12 2 144 14 2 148 192 139 100 95 107 76 111 85 104 111 85 104 95 107 76 97 133 80 110 88 160 118 83 140 108 178 164 118 83 140 110 88 160 193 63 136 193 63 136 111 85 104 118 83 140 111 85 104 193 63 136 192 139 100 118 83 140 15 2 108 12 2 144 15 2 108 118 83 140 111 85 104 124 42 93 137 125 89 126 101 69 137 125 89 194 76 65 126 101 69 121 41 81 122 175 57 135 53 85 135 53 85 122 175 57 195 177 61 195 177 61 137 125 89 135 53 85 137 125 89 195 177 61 194 76 65 17 44 113 19 44 109 135 53 85 17 44 113 135 53 85 137 125 89 130 37 181 129 161 177 139 193 153 130 37 181 139 193 153 196 78 157 197 124 121 136 55 117 123 174 97 136 55 117 124 42 93 123 174 97 197 124 121 196 78 157 139 193 153 139 193 153 136 55 117 197 124 121 136 55 117 139 193 153 18 44 149 18 44 149 17 44 113 136 55 117 132 156 190 140 191 169 198 40 195 140 191 169 132 156 190 131 160 165 128 52 205 199 122 200 138 43 173 128 52 205 138 43 173 129 161 177 199 122 200 198 40 195 140 191 169 199 122 200 140 191 169 138 43 173 138 43 173 140 191 169 16 44 145 138 43 173 16 44 145 18 44 149 200 77 101 119 120 77 134 192 105 134 192 105 119 120 77 121 41 81 133 176 161 141 54 141 131 160 165 141 54 141 133 176 161 201 123 137 201 123 137 134 192 105 141 54 141 134 192 105 201 123 137 200 77 101 141 54 141 19 44 109 16 44 145 19 44 109 141 54 141 134 192 105 202 159 46 146 36 30 156 70 40 156 70 40 146 36 30 145 32 29 144 119 28 155 35 39 142 91 26 155 35 39 144 119 28 203 121 47 203 121 47 156 70 40 155 35 39 156 70 40 203 121 47 202 159 46 155 35 39 22 1 20 21 1 19 22 1 20 155 35 39 156 70 40 149 20 33 159 17 43 150 80 34 159 17 43 204 144 48 150 80 34 145 32 29 147 115 31 157 9 41 157 9 41 147 115 31 205 146 49 159 17 43 157 9 41 205 146 49 159 17 43 205 146 49 204 144 48 23 1 21 22 1 20 157 9 41 23 1 21 157 9 41 159 17 43 153 165 37 152 79 36 161 59 45 153 165 37 161 59 45 206 141 50 207 110 51 158 22 42 148 108 32 158 22 42 149 20 33 148 108 32 207 110 51 206 141 50 161 59 45 161 59 45 158 22 42 207 110 51 158 22 42 161 59 45 20 1 18 20 1 18 23 1 21 158 22 42 143 153 27 154 19 38 208 127 52 154 19 38 143 153 27 142 91 26 151 163 35 209 130 53 160 13 44 151 163 35 160 13 44 152 79 36 209 130 53 208 127 52 154 19 38 209 130 53 154 19 38 160 13 44 160 13 44 154 19 38 21 1 19 160 13 44 21 1 19 20 1 18</p>
        </triangles>
      </mesh>
    </geometry>
    <geometry id="Mesh.008" name="Mesh.008">
      <mesh>
        <source id="Mesh.008-position" name="position">
          <float_array id="Mesh.008-position-array" count="630">2.809999942779541 -2.809999942779541 -91.44000244140625 -2.809999942779541 -2.809999942779541 -91.44000244140625 -2.809999942779541 2.809999942779541 -91.44000244140625 2.809999942779541 2.809999942779541 -91.44000244140625 -2.809999942779541 -3.809999942779541 -31.480003356933594 2.809999942779541 -3.809999942779541 -90.44000244140625 2.809999942779541 -3.809999942779541 -31.480003356933594 -2.809999942779541 -3.809999942779541 -90.44000244140625 3.809999942779541 -2.809999942779541 -31.480003356933594 3.809999942779541 2.809999942779541 -90.44000244140625 3.809999942779541 2.809999942779541 -31.480003356933594 3.809999942779541 -2.809999942779541 -90.44000244140625 2.809999942779541 3.809999942779541 -31.480003356933594 -2.809999942779541 3.809999942779541 -90.44000244140625 -2.809999942779541 3.809999942779541 -31.480003356933594 2.809999942779541 3.809999942779541 -90.44000244140625 -3.809999942779541 2.809999942779541 -31.480003356933594 -3.809999942779541 -2.809999942779541 -90.44000244140625 -3.809999942779541 -2.809999942779541 -31.480003356933594 -3.809999942779541 2.809999942779541 -90.44000244140625 -2.809999942779541 2.809999942779541 -30.480003356933594 -2.809999942779541 -2.809999942779541 -30.480003356933594 2.809999942779541 2.809999942779541 -30.480003356933594 2.809999942779541 -2.809999942779541 -30.480003356933594 -3.622499942779541 -3.622499942779541 -91.25250244140625 -3.309999942779541 -3.309999942779541 -91.44000244140625 -3.309999942779541 -3.684999942779541 -91.31500244140625 -3.684999942779541 -3.309999942779541 -91.31500244140625 -3.622499942779541 3.622499942779541 -91.25250244140625 -3.309999942779541 3.309999942779541 -91.44000244140625 -3.684999942779541 3.309999942779541 -91.31500244140625 -3.309999942779541 3.684999942779541 -91.31500244140625 3.684999942779541 3.309999942779541 -91.31500244140625 3.309999942779541 3.309999942779541 -91.44000244140625 3.622499942779541 3.622499942779541 -91.25250244140625 3.309999942779541 3.684999942779541 -91.31500244140625 3.622499942779541 -3.622499942779541 -91.25250244140625 3.309999942779541 -3.684999942779541 -91.31500244140625 3.309999942779541 -3.309999942779541 -91.44000244140625 3.684999942779541 -3.309999942779541 -91.31500244140625 -2.809999942779541 -3.309999942779541 -91.44000244140625 -3.309999942779541 -2.809999942779541 -91.44000244140625 -3.309999942779541 2.809999942779541 -91.44000244140625 -2.809999942779541 3.309999942779541 -91.44000244140625 3.309999942779541 2.809999942779541 -91.44000244140625 2.809999942779541 3.309999942779541 -91.44000244140625 2.809999942779541 -3.309999942779541 -91.44000244140625 3.309999942779541 -2.809999942779541 -91.44000244140625 -3.684999942779541 -3.684999942779541 -90.94000244140625 -3.622499942779541 -3.622499942779541 -91.25250244140625 -3.309999942779541 -3.809999942779541 -90.94000244140625 -3.309999942779541 -3.684999942779541 -91.31500244140625 3.684999942779541 -3.684999942779541 -90.94000244140625 3.309999942779541 -3.809999942779541 -90.94000244140625 3.622499942779541 -3.622499942779541 -91.25250244140625 3.309999942779541 -3.684999942779541 -91.31500244140625 3.6224989891052246 -3.6224989891052246 -30.667499542236328 3.309999942779541 -3.684999942779541 -30.605003356933594 3.309999942779541 -3.809999942779541 -30.980003356933594 3.684999942779541 -3.684999942779541 -30.980003356933594 -3.6224989891052246 -3.6224989891052246 -30.667499542236328 -3.309999942779541 -3.809999942779541 -30.980003356933594 -3.309999942779541 -3.684999942779541 -30.605003356933594 -3.684999942779541 -3.684999942779541 -30.980003356933594 -3.309999942779541 -3.809999942779541 -90.44000244140625 -2.809999942779541 -3.809999942779541 -90.94000244140625 3.309999942779541 -3.809999942779541 -90.44000244140625 2.809999942779541 -3.809999942779541 -90.94000244140625 2.809999942779541 -3.809999942779541 -30.980003356933594 3.309999942779541 -3.809999942779541 -31.480003356933594 -2.809999942779541 -3.809999942779541 -30.980003356933594 -3.309999942779541 -3.809999942779541 -31.480003356933594 3.684999942779541 -3.684999942779541 -90.94000244140625 3.809999942779541 -3.309999942779541 -90.94000244140625 3.684999942779541 -3.309999942779541 -91.31500244140625 3.684999942779541 3.684999942779541 -90.94000244140625 3.809999942779541 3.309999942779541 -90.94000244140625 3.622499942779541 3.622499942779541 -91.25250244140625 3.684999942779541 3.309999942779541 -91.31500244140625 3.6224989891052246 3.6224989891052246 -30.667499542236328 3.684999942779541 3.309999942779541 -30.605003356933594 3.809999942779541 3.309999942779541 -30.980003356933594 3.684999942779541 3.684999942779541 -30.980003356933594 3.6224989891052246 -3.6224989891052246 -30.667499542236328 3.809999942779541 -3.309999942779541 -30.980003356933594 3.684999942779541 -3.309999942779541 -30.605003356933594 3.684999942779541 -3.684999942779541 -30.980003356933594 3.809999942779541 -3.309999942779541 -90.44000244140625 3.809999942779541 -2.809999942779541 -90.94000244140625 3.809999942779541 3.309999942779541 -90.44000244140625 3.809999942779541 2.809999942779541 -90.94000244140625 3.809999942779541 2.809999942779541 -30.980003356933594 3.809999942779541 3.309999942779541 -31.480003356933594 3.809999942779541 -2.809999942779541 -30.980003356933594 3.809999942779541 -3.309999942779541 -31.480003356933594 3.684999942779541 3.684999942779541 -90.94000244140625 3.622499942779541 3.622499942779541 -91.25250244140625 3.309999942779541 3.809999942779541 -90.94000244140625 3.309999942779541 3.684999942779541 -91.31500244140625 -3.684999942779541 3.684999942779541 -90.94000244140625 -3.309999942779541 3.809999942779541 -90.94000244140625 -3.622499942779541 3.622499942779541 -91.25250244140625 -3.309999942779541 3.684999942779541 -91.31500244140625 -3.6224989891052246 3.6224989891052246 -30.667499542236328 -3.309999942779541 3.684999942779541 -30.605003356933594 -3.309999942779541 3.809999942779541 -30.980003356933594 -3.684999942779541 3.684999942779541 -30.980003356933594 3.6224989891052246 3.6224989891052246 -30.667499542236328 3.309999942779541 3.809999942779541 -30.980003356933594 3.309999942779541 3.684999942779541 -30.605003356933594 3.684999942779541 3.684999942779541 -30.980003356933594 3.309999942779541 3.809999942779541 -90.44000244140625 2.809999942779541 3.809999942779541 -90.94000244140625 -3.309999942779541 3.809999942779541 -90.44000244140625 -2.809999942779541 3.809999942779541 -90.94000244140625 -2.809999942779541 3.809999942779541 -30.980003356933594 -3.309999942779541 3.809999942779541 -31.480003356933594 2.809999942779541 3.809999942779541 -30.980003356933594 3.309999942779541 3.809999942779541 -31.480003356933594 -3.684999942779541 3.684999942779541 -90.94000244140625 -3.622499942779541 3.622499942779541 -91.25250244140625 -3.809999942779541 3.309999942779541 -90.94000244140625 -3.684999942779541 3.309999942779541 -91.31500244140625 -3.684999942779541 -3.684999942779541 -90.94000244140625 -3.809999942779541 -3.309999942779541 -90.94000244140625 -3.684999942779541 -3.309999942779541 -91.31500244140625 -3.6224989891052246 -3.6224989891052246 -30.667499542236328 -3.684999942779541 -3.309999942779541 -30.605003356933594 -3.809999942779541 -3.309999942779541 -30.980003356933594 -3.684999942779541 -3.684999942779541 -30.980003356933594 -3.6224989891052246 3.6224989891052246 -30.667499542236328 -3.809999942779541 3.309999942779541 -30.980003356933594 -3.684999942779541 3.309999942779541 -30.605003356933594 -3.684999942779541 3.684999942779541 -30.980003356933594 -3.809999942779541 3.309999942779541 -90.44000244140625 -3.809999942779541 2.809999942779541 -90.94000244140625 -3.809999942779541 -3.309999942779541 -90.44000244140625 -3.809999942779541 -2.809999942779541 -90.94000244140625 -3.809999942779541 -2.809999942779541 -30.980003356933594 -3.809999942779541 -3.309999942779541 -31.480003356933594 -3.809999942779541 2.809999942779541 -30.980003356933594 -3.809999942779541 3.309999942779541 -31.480003356933594 3.684999942779541 -3.309999942779541 -30.605003356933594 3.309999942779541 -3.309999942779541 -30.480003356933594 3.309999942779541 -3.684999942779541 -30.605003356933594 3.309999942779541 3.684999942779541 -30.605003356933594 3.309999942779541 3.309999942779541 -30.480003356933594 3.684999942779541 3.309999942779541 -30.605003356933594 -3.309999942779541 3.309999942779541 -30.480003356933594 -3.309999942779541 3.684999942779541 -30.605003356933594 -3.684999942779541 3.309999942779541 -30.605003356933594 -3.309999942779541 -3.309999942779541 -30.480003356933594 -3.684999942779541 -3.309999942779541 -30.605003356933594 -3.309999942779541 -3.684999942779541 -30.605003356933594 3.309999942779541 -2.809999942779541 -30.480003356933594 2.809999942779541 -3.309999942779541 -30.480003356933594 2.809999942779541 3.309999942779541 -30.480003356933594 3.309999942779541 2.809999942779541 -30.480003356933594 -2.809999942779541 3.309999942779541 -30.480003356933594 -3.309999942779541 2.809999942779541 -30.480003356933594 -3.309999942779541 -2.809999942779541 -30.480003356933594 -2.809999942779541 -3.309999942779541 -30.480003356933594 -3.684999942779541 2.809999942779541 -91.31500244140625 -3.684999942779541 -2.809999942779541 -91.31500244140625 2.809999942779541 3.684999942779541 -91.31500244140625 -2.809999942779541 3.684999942779541 -91.31500244140625 3.684999942779541 -2.809999942779541 -91.31500244140625 3.684999942779541 2.809999942779541 -91.31500244140625 -2.809999942779541 -3.684999942779541 -91.31500244140625 2.809999942779541 -3.684999942779541 -91.31500244140625 2.809999942779541 -3.684999942779541 -91.31500244140625 -2.809999942779541 -3.684999942779541 -91.31500244140625 3.684999942779541 -3.684999942779541 -31.480003356933594 3.684999942779541 -3.684999942779541 -90.44000244140625 -2.809999942779541 -3.684999942779541 -30.605003356933594 2.809999942779541 -3.684999942779541 -30.605003356933594 -3.684999942779541 -3.684999942779541 -90.44000244140625 -3.684999942779541 -3.684999942779541 -31.480003356933594 3.684999942779541 2.809999942779541 -91.31500244140625 3.684999942779541 -2.809999942779541 -91.31500244140625 3.684999942779541 3.684999942779541 -31.480003356933594 3.684999942779541 3.684999942779541 -90.44000244140625 3.684999942779541 -2.809999942779541 -30.605003356933594 3.684999942779541 2.809999942779541 -30.605003356933594 3.684999942779541 -3.684999942779541 -90.44000244140625 3.684999942779541 -3.684999942779541 -31.480003356933594 -2.809999942779541 3.684999942779541 -91.31500244140625 2.809999942779541 3.684999942779541 -91.31500244140625 -3.684999942779541 3.684999942779541 -31.480003356933594 -3.684999942779541 3.684999942779541 -90.44000244140625 2.809999942779541 3.684999942779541 -30.605003356933594 -2.809999942779541 3.684999942779541 -30.605003356933594 3.684999942779541 3.684999942779541 -90.44000244140625 3.684999942779541 3.684999942779541 -31.480003356933594 -3.684999942779541 -2.809999942779541 -91.31500244140625 -3.684999942779541 2.809999942779541 -91.31500244140625 -3.684999942779541 -3.684999942779541 -31.480003356933594 -3.684999942779541 -3.684999942779541 -90.44000244140625 -3.684999942779541 2.809999942779541 -30.605003356933594 -3.684999942779541 -2.809999942779541 -30.605003356933594 -3.684999942779541 3.684999942779541 -90.44000244140625 -3.684999942779541 3.684999942779541 -31.480003356933594 3.684999942779541 2.809999942779541 -30.605003356933594 3.684999942779541 -2.809999942779541 -30.605003356933594 -2.809999942779541 3.684999942779541 -30.605003356933594 2.809999942779541 3.684999942779541 -30.605003356933594 -3.684999942779541 -2.809999942779541 -30.605003356933594 -3.684999942779541 2.809999942779541 -30.605003356933594 2.809999942779541 -3.684999942779541 -30.605003356933594 -2.809999942779541 -3.684999942779541 -30.605003356933594 </float_array>
          <technique_common>
            <accessor source="#Mesh.008-position-array" count="210" stride="3">
              <param name="X" type="float" />
              <param name="Y" type="float" />
              <param name="Z" type="float" />
            </accessor>
          </technique_common>
        </source>
        <source id="Mesh.008-normal" name="normal">
          <float_array id="Mesh.008-normal-array" count="582">0 0 1 0 0 -1 0 1 0 0 -1 0 0 0.9870873 0.16018325 0 0.9870873 -0.16018325 0 -0.9870873 0.16018325 0 -0.9870873 -0.16018325 0 0.16018339 0.9870873 0 0.16018339 -0.9870873 0 0.9870871 0.16018444 0 0.9870871 -0.16018444 0 -0.16018339 0.9870873 0 -0.16018339 -0.9870873 0 -0.9870871 0.16018444 0 -0.9870871 -0.16018444 0 0.16018447 0.9870871 0 0.16018447 -0.9870871 0 -0.16018447 0.9870871 0 -0.16018447 -0.9870871 0.15031934 0.69906116 0.6990834 0.15032399 0.69908154 -0.69906205 0.15037632 -0.6990534 0.6990789 0.16018486 0 -0.9870871 0.57736826 -0.5773432 0.57733935 0.69905424 0.69907695 -0.1503818 0.6990619 0.6990815 0.15032473 0.6990619 -0.69908166 -0.15032464 0.6990814 -0.15032443 -0.699062 0.6990824 0.15032195 0.69906175 0.98708725 0 -0.1601839 1 0 0 -0.15032399 -0.69908154 -0.69906205 -0.16018486 0 -0.9870871 -0.57736826 0.5773432 0.57733935 -0.69905424 -0.69907695 -0.1503818 -0.6990619 -0.6990815 0.15032473 -0.6990619 0.69908166 -0.15032464 -0.6990814 0.15032443 -0.699062 -0.6990824 -0.15032195 0.69906175 -0.98708725 0 -0.1601839 -1 0 0 0.69906 -0.69908047 0.15033829 0.9870873 0 -0.16018309 0.9870873 0 0.16018282 0.9870873 0.16018347 0 0.9870873 -0.16018347 0 -0.14945163 0.1494521 0.97740895 -0.15031935 -0.69906104 0.69908357 -0.69906 0.69908047 0.15033829 -0.9870873 0 -0.16018309 -0.9870873 0 0.16018282 -0.9870873 0.16018347 0 -0.9870873 -0.16018347 0 0.150381 0.6990544 -0.6990769 0.16018608 0 -0.98708683 0.57734406 0.577368 0.5773387 0.57734406 -0.57733417 0.5773725 0.57736695 0.5773348 0.57734895 0.69905436 -0.15038103 -0.69907695 0.6990768 0.15038157 -0.69905436 0.6990777 -0.15037873 0.69905406 0.70708144 0.7071321 2.1449445E-05 0.70708144 -0.7071321 -2.1449445E-05 0.707131 2.1449452E-05 0.7070825 0.707132 0.70708144 -2.1449445E-05 0.707132 -0.70708144 2.1449445E-05 0.70713437 -2.1449434E-05 -0.7070791 0.9774085 0.14945315 0.14945298 0.9774085 -0.14945315 0.14945298 -0.150381 -0.6990544 -0.6990769 -0.16018608 0 -0.98708683 -0.57734406 0.57733417 0.5773725 -0.57734406 -0.577368 0.5773387 -0.6990768 -0.15038157 -0.69905436 -0.6990777 0.15037873 0.69905406 -0.70708144 0.7071321 -2.1449445E-05 -0.70708144 -0.7071321 2.1449445E-05 -0.707131 -2.1449452E-05 0.7070825 -0.707132 0.70708144 2.1449445E-05 -0.707132 -0.70708144 -2.1449445E-05 -0.70713437 2.1449434E-05 -0.7070791 -0.9774085 0.14945315 0.14945298 -0.9774085 -0.14945315 0.14945298 0.15038113 -0.69907695 -0.69905436 0.16018347 0.9870873 0 0.16018347 -0.9870873 0 0.16018407 0.9870872 0 0.16018407 -0.9870872 0 0.57733315 -0.57736844 0.5773493 0.57737035 0.577343 -0.57733744 -0.15038113 0.69907695 -0.69905436 -0.16018347 0.9870873 0 -0.16018347 -0.9870873 0 -0.16018407 0.9870872 0 -0.16018407 -0.9870872 0 -0.57733315 0.5773687 0.57734895 -0.577367 -0.57733464 0.57734925 -0.57737035 -0.577343 -0.57733744 -0.6990544 0.150381 -0.6990769 0.1494531 -0.9774085 -0.14945333 0.1494531 -0.14945309 -0.9774085 0.1494531 0.97740865 -0.14945334 0.15032214 -0.699082 0.699062 0.57733464 0.5773432 0.57737297 0.5773432 -0.5773708 -0.57733667 0.69906163 -0.15032133 0.6990825 0.6990621 0.15032405 -0.6990814 0.69908166 -0.6990619 0.15032446 0.7070792 -2.1449436E-05 0.7071344 0.70708394 2.1449456E-05 -0.7071297 0.7071321 0.70708144 -2.1449445E-05 0.7071321 -0.70708144 2.1449445E-05 0.97740865 0.14945324 -0.14945312 0.97740865 -0.14945324 -0.14945312 0.987087 0 0.16018508 -0.1494531 0.9774085 -0.14945333 -0.1494531 -0.97740865 -0.14945334 -0.15032214 0.699082 0.699062 -0.57733464 -0.5773432 0.57737297 -0.5773432 0.5773708 -0.57733667 -0.6990621 -0.1503237 -0.6990816 -0.69908166 0.6990619 0.15032446 -0.7070792 2.1449436E-05 0.7071344 -0.70708394 -2.1449456E-05 -0.7071297 -0.7071321 0.70708144 2.1449445E-05 -0.7071321 -0.70708144 -2.1449445E-05 -0.97740865 0.14945324 -0.14945312 -0.97740865 -0.14945324 -0.14945312 -0.987087 0 0.16018508 2.1449445E-05 0.70708144 0.7071321 2.1449445E-05 -0.70708144 -0.7071321 2.1449445E-05 0.70708156 0.7071319 2.1449445E-05 0.7071321 -0.70708144 2.1449445E-05 -0.70708156 -0.7071319 2.1449445E-05 -0.7071321 0.70708144 0.5773366 -0.577343 -0.5773712 0.5773433 0.57733715 -0.5773704 0.57737046 -0.57733667 -0.5773436 0.69907695 0.6990542 0.15038158 0.6990817 0.69906193 -0.15032387 0.7070816 0.7071319 2.1449447E-05 0.7070816 -0.7071319 -2.1449447E-05 0.707084 2.144946E-05 -0.70712966 0.707084 -2.144946E-05 0.70712966 0.7071312 -2.144945E-05 -0.7070823 -2.1449445E-05 0.70708144 -0.7071321 -2.1449445E-05 -0.70708144 0.7071321 -2.1449445E-05 0.70708156 -0.7071319 -2.1449445E-05 0.7071321 0.70708144 -2.1449445E-05 -0.70708156 0.7071319 -2.1449445E-05 -0.7071321 -0.70708144 -0.15037628 0.69905347 0.6990788 -0.5773366 0.577343 -0.5773712 -0.5773433 -0.57733715 -0.5773704 -0.69905406 -0.1503784 0.69907784 -0.6990617 0.15032156 0.6990824 -0.69907695 -0.6990542 0.15038158 -0.6990817 -0.69906193 -0.15032387 -0.7070816 0.7071319 -2.1449447E-05 -0.7070816 -0.7071319 2.1449447E-05 -0.707084 2.144946E-05 0.70712966 -0.707084 -2.144946E-05 -0.70712966 -0.7071312 2.144945E-05 -0.7070823 0.14945313 0.14945318 -0.97740865 0.14945325 0.9774085 0.14945318 0.14945325 -0.9774085 0.14945318 0.1601859 0 0.9870869 0.6990541 0.1503784 0.6990777 0.7071327 2.1449443E-05 0.7070809 -0.14945313 -0.14945312 -0.97740865 -0.14945325 0.9774085 0.14945318 -0.14945325 -0.9774085 0.14945318 -0.1601859 0 0.9870869 -0.5773705 0.5773367 -0.57734346 -0.7071327 -2.1449443E-05 0.7070809 0.1494516 0.14945209 0.97740895 0.1494516 -0.14945205 0.97740895 0.15032385 -0.6990621 -0.69908154 0.15037929 0.69907737 0.69905424 0.16018163 0 0.98708755 0.5773367 0.5773706 -0.57734334 0.69907707 -0.6990542 -0.15038101 0.9870872 0.16018397 0 0.9870872 -0.16018397 0 -0.1494516 -0.14945203 0.97740895 -0.14945315 0.14945313 -0.97740865 -0.15032385 0.6990621 -0.69908154 -0.15037929 -0.69907737 0.69905424 -0.16018163 0 0.98708755 -0.5773367 -0.5773704 -0.5773436 -0.69907707 0.6990542 -0.15038101 -0.9870872 0.16018397 0 -0.9870872 -0.16018397 0 </float_array>
          <technique_common>
            <accessor source="#Mesh.008-normal-array" count="194" stride="3">
              <param name="X" type="float" />
              <param name="Y" type="float" />
              <param name="Z" type="float" />
            </accessor>
          </technique_common>
        </source>
        <source id="Mesh.008-texcoord" name="texcoord">
          <float_array id="Mesh.008-texcoord-array" count="420">0 0 0 0 0 0 0 0 0.065617 0 0.065617 0 0.065617 0 0.065617 0 0.065617 0 0.131234 0 0.131234 0 0.131234 0 0.131234 0 0.131234 0 0.868766 0 0.868766 0 0.868766 0 0.868766 0 0.868766 0 0.934383 0 0.934383 0 0.934383 0 0.934383 0 0.934383 0 1 0 1 0 1 0 1 0 0 0.0041009784 0 0.0041009784 0 0.0041009784 0 0.0041009784 0.065617 0.0041009784 0.065617 0.0041009784 0.065617 0.0041009784 0.065617 0.0041009784 0.131234 0.0041009784 0.131234 0.0041009784 0.131234 0.0041009784 0.131234 0.0041009784 0.868766 0.0041009784 0.868766 0.0041009784 0.868766 0.0041009784 0.868766 0.0041009784 0.934383 0.0041009784 0.934383 0.0041009784 0.934383 0.0041009784 0.934383 0.0041009784 1 0.0041009784 1 0.0041009784 1 0.0041009784 1 0.0041009784 0 0.008202016 0 0.008202016 0 0.008202016 0 0.008202016 0.065617 0.008202016 0.065617 0.008202016 0.065617 0.008202016 0.065617 0.008202016 0.131234 0.008202016 0.131234 0.008202016 0.131234 0.008202016 0.131234 0.008202016 0.868766 0.008202016 0.868766 0.008202016 0.868766 0.008202016 0.868766 0.008202016 0.934383 0.008202016 0.934383 0.008202016 0.934383 0.008202016 0.934383 0.008202016 1 0.008202016 1 0.008202016 1 0.008202016 1 0.008202016 0 0.065617025 0.065617 0.065617025 0.131234 0.065617025 0.868766 0.065617025 0.934383 0.065617025 1 0.065617025 0 0.13123399 0.065617 0.13123399 0.131234 0.13123399 0.868766 0.13123399 0.934383 0.13123399 1 0.13123399 0 0.49179804 0 0.49179804 0 0.49179804 0 0.49179804 0.065617 0.49179804 0.065617 0.49179804 0.065617 0.49179804 0.065617 0.49179804 0.131234 0.49179804 0.131234 0.49179804 0.131234 0.49179804 0.131234 0.49179804 0.868766 0.49179804 0.868766 0.49179804 0.868766 0.49179804 0.868766 0.49179804 0.934383 0.49179804 0.934383 0.49179804 0.934383 0.49179804 0.934383 0.49179804 1 0.49179804 1 0.49179804 1 0.49179804 1 0.49179804 0 0.49589896 0 0.49589896 0 0.49589896 0 0.49589896 0.065617 0.49589896 0.065617 0.49589896 0.065617 0.49589896 0.065617 0.49589896 0.131234 0.49589896 0.131234 0.49589896 0.131234 0.49589896 0.131234 0.49589896 0.868766 0.49589896 0.868766 0.49589896 0.868766 0.49589896 0.868766 0.49589896 0.934383 0.49589896 0.934383 0.49589896 0.934383 0.49589896 0.934383 0.49589896 1 0.49589896 1 0.49589896 1 0.49589896 1 0.49589896 0 0.5 0 0.5 0 0.5 0 0.5 0.065617 0.5 0.065617 0.5 0.065617 0.5 0.065617 0.5 0.131234 0.5 0.131234 0.5 0.131234 0.5 0.131234 0.5 0.868766 0.5 0.868766 0.5 0.868766 0.5 0.868766 0.5 0.934383 0.5 0.934383 0.5 0.934383 0.5 0.934383 0.5 1 0.5 1 0.5 1 0.5 1 0.5 1 0.5 1 0.5 1 0.5 1 0.5 1 0.5 1 0.5 1 0.5 1 0.5 1 0.5 1 0.5 1 0.5 1 0.5 1 0.5 1 0.5 1 0.5 1 0.5 1 0.5 1 0.5 1 0.5 1 0.5 1 0.5 1 0.5 1 0.5 1 0.5 1 0.5 1 0.5 1 0.5 1 0.5 1 0.5 1 0.5 1 0.5 1 0.5 0 0.868766 0.065617 0.868766 0.131234 0.868766 0.868766 0.868766 0.934383 0.868766 1 0.868766 0 0.934383 0.065617 0.934383 0.131234 0.934383 0.868766 0.934383 0.934383 0.934383 1 0.934383 0 1 0.065617 1 0.131234 1 0.868766 1 0.934383 1 1 1 </float_array>
          <technique_common>
            <accessor source="#Mesh.008-texcoord-array" count="210" stride="2">
              <param name="S" type="float" />
              <param name="T" type="float" />
            </accessor>
          </technique_common>
        </source>
        <vertices id="Mesh.008-vertices">
          <input semantic="POSITION" source="#Mesh.008-position" />
        </vertices>
        <triangles material="mat0" count="300">
          <input semantic="VERTEX" source="#Mesh.008-vertices" offset="0" />
          <input semantic="NORMAL" source="#Mesh.008-normal" offset="1" />
          <input semantic="TEXCOORD" source="#Mesh.008-texcoord" offset="2" />
          <p>0 1 84 1 1 85 2 1 195 0 1 84 2 1 195 3 1 194 4 3 96 5 3 64 6 3 100 5 3 64 4 3 96 7 3 60 8 31 97 9 31 65 10 31 101 9 31 65 8 31 97 11 31 61 12 2 98 13 2 66 14 2 102 13 2 66 12 2 98 15 2 62 16 41 99 17 41 67 18 41 103 17 41 67 16 41 99 19 41 63 20 0 156 21 0 157 22 0 158 22 0 158 21 0 157 23 0 159 24 190 24 25 170 80 26 70 19 25 170 80 24 190 24 27 121 81 28 174 209 29 186 202 30 99 203 29 186 202 28 174 209 31 187 208 32 107 198 33 164 199 34 181 204 33 164 199 35 54 205 34 181 204 36 138 0 37 178 4 38 101 77 38 101 77 39 59 76 36 138 0 25 170 80 1 1 85 40 19 79 1 1 85 25 170 80 41 33 86 42 71 196 29 186 202 2 1 195 2 1 195 29 186 202 43 9 201 44 23 193 3 1 194 33 164 199 3 1 194 45 17 200 33 164 199 38 101 77 46 13 78 0 1 84 38 101 77 0 1 84 47 55 83 48 35 28 49 98 1 50 117 32 50 117 32 49 98 1 51 32 5 52 27 48 53 100 44 54 136 25 53 100 44 55 84 20 54 136 25 56 24 160 57 103 152 58 166 128 58 166 128 59 42 132 56 24 160 60 119 136 61 172 116 62 188 140 61 172 116 60 119 136 63 36 112 64 95 56 50 117 32 7 3 60 7 3 60 50 117 32 65 7 36 66 86 68 5 3 64 53 100 44 5 3 64 67 15 40 53 100 44 58 166 128 68 6 124 6 3 100 58 166 128 6 3 100 69 88 104 61 172 116 4 3 96 70 14 120 4 3 96 61 172 116 71 93 92 72 182 29 36 105 0 73 114 33 73 114 33 36 105 0 74 28 6 75 140 49 76 113 45 77 137 26 76 113 45 78 60 21 77 137 26 79 56 161 80 29 153 81 68 129 81 68 129 82 139 133 79 56 161 83 57 137 84 69 117 85 61 141 84 69 117 83 57 137 86 108 113 87 184 57 73 114 33 11 31 61 11 31 61 73 114 33 88 30 37 89 45 69 9 31 65 76 113 45 9 31 65 90 43 41 76 113 45 81 68 129 91 44 125 10 31 101 81 68 129 10 31 101 92 183 105 84 69 117 8 31 97 93 115 121 8 31 97 84 69 117 94 46 93 95 25 30 96 90 2 97 102 34 97 102 34 96 90 2 98 21 7 99 37 50 100 116 46 101 153 27 100 116 46 102 91 22 101 153 27 103 34 162 104 118 154 105 171 130 105 171 130 106 49 134 103 34 162 107 104 138 108 165 118 109 179 142 108 165 118 107 104 138 110 26 114 111 87 58 97 102 34 15 2 62 15 2 62 97 102 34 112 5 38 113 92 70 13 2 66 100 116 46 13 2 66 114 11 42 100 116 46 105 171 130 115 4 126 14 2 102 105 171 130 14 2 102 116 94 106 108 165 118 12 2 98 117 10 122 12 2 98 108 165 118 118 85 94 119 191 31 120 120 3 121 127 35 121 127 35 120 120 3 122 38 8 123 158 51 124 128 47 24 154 24 124 128 47 125 74 23 24 154 24 126 73 163 127 39 155 128 83 131 128 83 131 129 157 135 126 73 163 130 72 139 131 82 119 132 75 143 131 82 119 130 72 139 133 122 115 134 192 59 121 127 35 19 41 63 19 41 63 121 127 35 135 40 39 136 53 71 17 41 67 124 128 47 17 41 67 137 50 43 124 128 47 128 83 131 138 51 127 18 41 103 128 83 131 18 41 103 139 193 107 131 82 119 16 41 99 140 129 123 16 41 99 131 82 119 141 52 95 142 106 164 143 177 165 56 89 160 143 177 165 144 22 166 56 89 160 79 58 161 145 20 167 146 176 168 146 176 168 147 168 169 79 58 161 103 96 162 148 47 170 149 152 171 148 47 170 103 96 162 150 156 172 126 97 163 151 185 173 152 155 174 151 185 173 126 97 163 153 48 175 154 180 176 23 0 159 143 177 165 23 0 159 155 18 177 143 177 165 146 176 168 156 8 178 22 0 158 146 176 168 22 0 158 157 167 179 148 47 170 20 0 156 158 16 180 20 0 156 148 47 170 159 189 181 160 173 182 151 185 173 21 0 157 21 0 157 151 185 173 161 12 183 162 162 197 30 99 203 42 71 196 42 71 196 30 99 203 29 186 202 27 121 81 41 33 86 25 170 80 41 33 86 27 121 81 163 124 87 163 124 87 42 71 196 41 33 86 42 71 196 163 124 87 162 162 197 41 33 86 2 1 195 1 1 85 2 1 195 41 33 86 42 71 196 33 164 199 45 17 200 35 54 205 45 17 200 164 146 206 35 54 205 29 186 202 31 187 208 43 9 201 43 9 201 31 187 208 165 148 207 45 17 200 43 9 201 165 148 207 45 17 200 165 148 207 164 146 206 3 1 194 2 1 195 43 9 201 3 1 194 43 9 201 45 17 200 39 59 76 38 101 77 47 55 83 39 59 76 47 55 83 166 143 82 167 110 192 44 23 193 32 107 198 44 23 193 33 164 199 32 107 198 167 110 192 166 143 82 47 55 83 47 55 83 44 23 193 167 110 192 44 23 193 47 55 83 0 1 84 0 1 84 3 1 194 44 23 193 26 70 19 40 19 79 168 131 14 40 19 79 26 70 19 25 170 80 37 178 4 169 134 9 46 13 78 37 178 4 46 13 78 38 101 77 169 134 9 168 131 14 40 19 79 169 134 9 40 19 79 46 13 78 46 13 78 40 19 79 1 1 85 46 13 78 1 1 85 0 1 84 53 100 44 67 15 40 55 84 20 67 15 40 170 151 15 55 84 20 50 117 32 51 32 5 65 7 36 65 7 36 51 32 5 171 151 10 171 151 10 67 15 40 65 7 36 67 15 40 171 151 10 170 151 15 5 3 64 7 3 60 65 7 36 5 3 64 65 7 36 67 15 40 59 42 132 58 166 128 69 88 104 59 42 132 69 88 104 172 142 108 173 63 72 66 86 68 52 27 48 66 86 68 53 100 44 52 27 48 173 63 72 172 142 108 69 88 104 69 88 104 66 86 68 173 63 72 66 86 68 69 88 104 6 3 100 6 3 100 5 3 64 66 86 68 62 188 140 70 14 120 174 135 144 70 14 120 62 188 140 61 172 116 57 103 152 175 135 148 68 6 124 57 103 152 68 6 124 58 166 128 175 135 148 174 135 144 70 14 120 175 135 148 70 14 120 68 6 124 68 6 124 70 14 120 4 3 96 68 6 124 4 3 96 6 3 100 176 160 52 48 35 28 64 95 56 64 95 56 48 35 28 50 117 32 63 36 112 71 93 92 61 172 116 71 93 92 63 36 112 177 77 88 177 77 88 64 95 56 71 93 92 64 95 56 177 77 88 176 160 52 71 93 92 7 3 60 4 3 96 7 3 60 71 93 92 64 95 56 76 113 45 90 43 41 78 60 21 90 43 41 178 67 16 78 60 21 73 114 33 74 28 6 88 30 37 88 30 37 74 28 6 179 145 11 179 145 11 90 43 41 88 30 37 90 43 41 179 145 11 178 67 16 9 31 65 11 31 61 88 30 37 9 31 65 88 30 37 90 43 41 82 139 133 81 68 129 92 183 105 82 139 133 92 183 105 180 65 109 181 111 73 89 45 69 75 140 49 89 45 69 76 113 45 75 140 49 181 111 73 180 65 109 92 183 105 92 183 105 89 45 69 181 111 73 89 45 69 92 183 105 10 31 101 10 31 101 9 31 65 89 45 69 85 61 141 93 115 121 182 64 145 93 115 121 85 61 141 84 69 117 80 29 153 183 169 149 91 44 125 80 29 153 91 44 125 81 68 129 183 169 149 182 64 145 93 115 121 183 169 149 93 115 121 91 44 125 91 44 125 93 115 121 8 31 97 91 44 125 8 31 97 10 31 101 184 66 53 72 182 29 87 184 57 87 184 57 72 182 29 73 114 33 86 108 113 94 46 93 84 69 117 94 46 93 86 108 113 185 112 89 185 112 89 87 184 57 94 46 93 87 184 57 185 112 89 184 66 53 94 46 93 11 31 61 8 31 97 11 31 61 94 46 93 87 184 57 100 116 46 114 11 42 102 91 22 114 11 42 186 133 17 102 91 22 97 102 34 98 21 7 112 5 38 112 5 38 98 21 7 187 133 12 187 133 12 114 11 42 112 5 38 114 11 42 187 133 12 186 133 17 13 2 66 15 2 62 112 5 38 13 2 66 112 5 38 114 11 42 106 49 134 105 171 130 116 94 106 106 49 134 116 94 106 188 159 110 189 76 74 113 92 70 99 37 50 113 92 70 100 116 46 99 37 50 189 76 74 188 159 110 116 94 106 116 94 106 113 92 70 189 76 74 113 92 70 116 94 106 14 2 102 14 2 102 13 2 66 113 92 70 109 179 142 117 10 122 190 149 146 117 10 122 109 179 142 108 165 118 104 118 154 191 149 150 115 4 126 104 118 154 115 4 126 105 171 130 191 149 150 190 149 146 117 10 122 191 149 150 117 10 122 115 4 126 115 4 126 117 10 122 12 2 98 115 4 126 12 2 98 14 2 102 192 141 54 95 25 30 111 87 58 111 87 58 95 25 30 97 102 34 110 26 114 118 85 94 108 165 118 118 85 94 110 26 114 193 62 90 193 62 90 111 87 58 118 85 94 111 87 58 193 62 90 192 141 54 118 85 94 15 2 62 12 2 98 15 2 62 118 85 94 111 87 58 124 128 47 137 50 43 125 74 23 137 50 43 194 81 18 125 74 23 121 127 35 122 38 8 135 40 39 135 40 39 122 38 8 195 163 13 195 163 13 137 50 43 135 40 39 137 50 43 195 163 13 194 81 18 17 41 67 19 41 63 135 40 39 17 41 67 135 40 39 137 50 43 129 157 135 128 83 131 139 193 107 129 157 135 139 193 107 196 80 111 197 126 75 136 53 71 123 158 51 136 53 71 124 128 47 123 158 51 197 126 75 196 80 111 139 193 107 139 193 107 136 53 71 197 126 75 136 53 71 139 193 107 18 41 103 18 41 103 17 41 67 136 53 71 132 75 143 140 129 123 198 78 147 140 129 123 132 75 143 131 82 119 127 39 155 199 175 151 138 51 127 127 39 155 138 51 127 128 83 131 199 175 151 198 78 147 140 129 123 199 175 151 140 129 123 138 51 127 138 51 127 140 129 123 16 41 99 138 51 127 16 41 99 18 41 103 200 79 55 119 191 31 134 192 59 134 192 59 119 191 31 121 127 35 133 122 115 141 52 95 131 82 119 141 52 95 133 122 115 201 125 91 201 125 91 134 192 59 141 52 95 134 192 59 201 125 91 200 79 55 141 52 95 19 41 63 16 41 99 19 41 63 141 52 95 134 192 59 147 168 169 146 176 168 157 167 179 147 168 169 157 167 179 202 144 184 203 109 185 154 180 176 142 106 164 154 180 176 143 177 165 142 106 164 203 109 185 202 144 184 157 167 179 157 167 179 154 180 176 203 109 185 154 180 176 157 167 179 22 0 158 22 0 158 23 0 159 154 180 176 149 152 171 158 16 180 204 130 186 158 16 180 149 152 171 148 47 170 145 20 167 205 132 187 156 8 178 145 20 167 156 8 178 146 176 168 205 132 187 204 130 186 158 16 180 205 132 187 158 16 180 156 8 178 156 8 178 158 16 180 20 0 156 156 8 178 20 0 156 22 0 158 206 161 188 152 155 174 160 173 182 160 173 182 152 155 174 151 185 173 150 156 172 159 189 181 148 47 170 159 189 181 150 156 172 207 123 189 207 123 189 160 173 182 159 189 181 160 173 182 207 123 189 206 161 188 159 189 181 21 0 157 20 0 156 21 0 157 159 189 181 160 173 182 143 177 165 155 18 177 144 22 166 155 18 177 208 147 190 144 22 166 151 185 173 153 48 175 161 12 183 161 12 183 153 48 175 209 150 191 155 18 177 161 12 183 209 150 191 155 18 177 209 150 191 208 147 190 23 0 159 21 0 157 161 12 183 23 0 159 161 12 183 155 18 177</p>
        </triangles>
      </mesh>
    </geometry>
  </library_geometries>
  <library_images />
  <library_visual_scenes>
    <visual_scene id="Scene" name="Scene">
      <node id="gate_left" sid="gate_left" name="gate_left" type="NODE">
        <matrix>0.00999999977648258 0 0 0 0 0.00999999977648255 7.549789247110647E-10 0 0 -7.549789247110647E-10 0.00999999977648255 0 0 0 0 1</matrix>
        <node id="gate_left-lib-0" sid="gate_left-lib-0" name="gate_left-lib-0" type="NODE">
          <matrix>1 0 0 0 0 1 0 0 0 0 1 0 0 0 0 1</matrix>
          <instance_geometry url="#Mesh.007">
            <bind_material>
              <technique_common>
                <instance_material symbol="mat0" target="#gate_black" />
              </technique_common>
            </bind_material>
          </instance_geometry>
        </node>
        <node id="gate_left-lib-1" sid="gate_left-lib-1" name="gate_left-lib-1" type="NODE">
          <matrix>1 0 0 0 0 1 0 0 0 0 1 0 0 0 0 1</matrix>
          <instance_geometry url="#Mesh.008">
            <bind_material>
              <technique_common>
                <instance_material symbol="mat0" target="#gate_red" />
              </technique_common>
            </bind_material>
          </instance_geometry>
        </node>
      </node>
    </visual_scene>
  </library_visual_scenes>
  <library_animations />
  <scene>
    <instance_visual_scene url="#Scene" />
  </scene>
</COLLADA>